<?xml version="1.0" standalone="no"?><!DOCTYPE svg PUBLIC "-//W3C//DTD SVG 1.1//EN" "http://www.w3.org/Graphics/SVG/1.1/DTD/svg11.dtd"><svg t="1699175281769" class="icon" viewBox="0 0 1024 1024" version="1.1" xmlns="http://www.w3.org/2000/svg" p-id="8209" width="64" height="64" xmlns:xlink="http://www.w3.org/1999/xlink"><path d="M915.911111 199.111111c-79.644444 79.644444-130.844444 193.422222-130.844444 312.888889s51.2 233.244444 130.844444 312.888889C984.177778 739.555556 1024 631.466667 1024 512s-39.822222-227.555556-108.088889-312.888889z" fill="#1afa29" p-id="8210"></path><path d="M694.044444 512c0-147.911111 62.577778-284.444444 159.288889-375.466667C768 51.2 642.844444 0 512 0S256 51.2 164.977778 136.533333C267.377778 227.555556 329.955556 364.088889 329.955556 512S267.377778 796.444444 170.666667 887.466667C256 972.8 381.155556 1024 512 1024s256-51.2 347.022222-136.533333c-102.4-91.022222-164.977778-227.555556-164.977778-375.466667z" fill="#1afa29" p-id="8211"></path><path d="M108.088889 824.888889c79.644444-79.644444 130.844444-193.422222 130.844444-312.888889s-45.511111-233.244444-130.844444-312.888889C39.822222 284.444444 0 392.533333 0 512s39.822222 227.555556 108.088889 312.888889z" fill="#1afa29" p-id="8212"></path></svg>