<?xml version="1.0" standalone="no"?><!DOCTYPE svg PUBLIC "-//W3C//DTD SVG 1.1//EN" "http://www.w3.org/Graphics/SVG/1.1/DTD/svg11.dtd"><svg t="1699174937947" class="icon" viewBox="0 0 1024 1024" version="1.1" xmlns="http://www.w3.org/2000/svg" p-id="7262" width="128" height="128" xmlns:xlink="http://www.w3.org/1999/xlink"><path d="M912.426667 710.826667a402.133333 402.133333 0 0 1-39.253334 64 30.933333 30.933333 0 0 0-13.866666-17.92 514.133333 514.133333 0 0 1-221.866667-285.44 515.84 515.84 0 0 1 12.586667-361.386667 33.066667 33.066667 0 0 0 1.92-21.333333 421.546667 421.546667 0 0 1 67.84 28.586666 441.813333 441.813333 0 0 0-18.56 332.8 442.026667 442.026667 0 0 0 209.493333 259.2z" fill="#E0E0E0" p-id="7263"></path><path d="M719.786667 117.333333a378.24 378.24 0 0 0-34.773334 104.746667 412.16 412.16 0 0 0-64-12.586667 455.466667 455.466667 0 0 1 30.293334-100.266666 33.066667 33.066667 0 0 0 1.92-21.333334 421.546667 421.546667 0 0 1 66.56 29.44z" fill="#FFFFFF" p-id="7264"></path><path d="M374.186667 913.706667a33.493333 33.493333 0 0 0-2.133334 21.333333 426.666667 426.666667 0 0 1-67.2-28.586667 441.6 441.6 0 0 0 18.56-332.8 444.373333 444.373333 0 0 0-209.066666-259.626666 444.586667 444.586667 0 0 1 37.546666-62.08 29.226667 29.226667 0 0 0 13.013334 14.933333 514.133333 514.133333 0 0 1 221.44 285.866667 513.493333 513.493333 0 0 1-12.16 360.96z" fill="#E0E0E0" p-id="7265"></path><path d="M245.333333 327.893333a381.653333 381.653333 0 0 0-45.866666 46.933334 397.013333 397.013333 0 0 0-85.333334-60.8 444.586667 444.586667 0 0 1 37.546667-62.08 29.226667 29.226667 0 0 0 13.013333 14.933333 451.626667 451.626667 0 0 1 80.64 61.013333z" fill="#FFFFFF" p-id="7266"></path><path d="M132.48 953.173333a379.52 49.493333 0 1 0 759.04 0 379.52 49.493333 0 1 0-759.04 0Z" fill="#45413C" opacity=".15" p-id="7267"></path><path d="M741.973333 111.36a16.64 16.64 0 0 0-23.04 6.826667 442.88 442.88 0 0 0-18.346666 332.8 443.733333 443.733333 0 0 0 209.706666 259.2 16.64 16.64 0 0 0 22.613334-8.106667 461.44 461.44 0 0 0-190.933334-590.72z" fill="#9CEB60" p-id="7268"></path><path d="M970.666667 455.04A477.013333 477.013333 0 0 0 682.666667 229.76a386.56 386.56 0 0 1 36.053333-111.573333 16.64 16.64 0 0 1 23.04-6.826667 459.52 459.52 0 0 1 209.493333 258.346667 441.386667 441.386667 0 0 1 19.413334 85.333333z" fill="#C8FFA1" p-id="7269"></path><path d="M650.026667 110.08a32.853333 32.853333 0 0 0-21.333334-45.013333A459.733333 459.733333 0 0 0 156.373333 217.6a32.853333 32.853333 0 0 0 8.533334 49.28A512 512 0 0 1 386.346667 552.533333a513.493333 513.493333 0 0 1-12.373334 361.386667 33.066667 33.066667 0 0 0 21.333334 45.013333 459.733333 459.733333 0 0 0 471.466666-152.533333 32.64 32.64 0 0 0-8.533333-49.28A514.773333 514.773333 0 0 1 637.653333 471.466667a513.493333 513.493333 0 0 1 12.373334-361.386667z" fill="#9CEB60" p-id="7270"></path><path d="M650.026667 110.08a462.506667 462.506667 0 0 0-31.573334 106.666667 433.28 433.28 0 0 0-62.506666-4.266667 472.96 472.96 0 0 0-310.186667 115.2 487.253333 487.253333 0 0 0-80.853333-61.013333 32.64 32.64 0 0 1-8.32-49.28 455.893333 455.893333 0 0 1 213.333333-145.28 461.44 461.44 0 0 1 258.133333-7.253334 32.64 32.64 0 0 1 21.973334 45.226667z" fill="#C8FFA1" p-id="7271"></path><path d="M113.706667 313.813333a16.853333 16.853333 0 0 0-22.613334 8.106667 461.44 461.44 0 0 0 192 590.72 16.64 16.64 0 0 0 23.04-6.826667 443.733333 443.733333 0 0 0 18.56-332.8 444.8 444.8 0 0 0-210.986666-259.2z" fill="#9CEB60" p-id="7272"></path><path d="M198.826667 374.186667a471.04 471.04 0 0 0-118.186667 303.36c-2.986667-7.68-5.546667-15.573333-8.32-23.466667a458.026667 458.026667 0 0 1 18.773333-332.16 16.426667 16.426667 0 0 1 22.826667-7.893333 375.68 375.68 0 0 1 84.906667 60.16z" fill="#C8FFA1" p-id="7273"></path></svg>